<?xml version="1.0" encoding="UTF-8" standalone="no"?>
<!-- Created with Inkscape (http://www.inkscape.org/) -->

<svg
   inkscape:export-ydpi="96"
   inkscape:export-xdpi="96"
   inkscape:export-filename="icon.svg"
   width="128"
   height="128"
   id="svg11300"
   sodipodi:version="0.32"
   inkscape:version="1.3.2 (091e20e, 2023-11-25)"
   sodipodi:docname="template.svg"
   inkscape:output_extension="org.inkscape.output.svg.inkscape"
   version="1.0"
   style="display:inline;enable-background:new"
   viewBox="0 0 128 128"
   xml:space="preserve"
   xmlns:inkscape="http://www.inkscape.org/namespaces/inkscape"
   xmlns:sodipodi="http://sodipodi.sourceforge.net/DTD/sodipodi-0.dtd"
   xmlns:xlink="http://www.w3.org/1999/xlink"
   xmlns="http://www.w3.org/2000/svg"
   xmlns:svg="http://www.w3.org/2000/svg"
   xmlns:rdf="http://www.w3.org/1999/02/22-rdf-syntax-ns#"
   xmlns:cc="http://creativecommons.org/ns#"
   xmlns:dc="http://purl.org/dc/elements/1.1/"><style
     id="style71">
.measure-arrow
{
}
.measure-label
{

}
.measure-line
{
}</style><title
     id="title4162">Adwaita Icon Template</title><defs
     id="defs3"><linearGradient
       id="linearGradient15"
       inkscape:collect="always"><stop
         style="stop-color:#26a269;stop-opacity:1;"
         offset="0"
         id="stop17" /><stop
         style="stop-color:#33d17a;stop-opacity:1;"
         offset="0.18255579"
         id="stop18" /><stop
         style="stop-color:#26a269;stop-opacity:1;"
         offset="1"
         id="stop15" /></linearGradient><linearGradient
       inkscape:collect="always"
       xlink:href="#linearGradient15"
       id="linearGradient16"
       x1="2.1800475"
       y1="18.54999"
       x2="19.280045"
       y2="18.54999"
       gradientUnits="userSpaceOnUse" /><linearGradient
       inkscape:collect="always"
       xlink:href="#linearGradient15"
       id="linearGradient29"
       gradientUnits="userSpaceOnUse"
       x1="2.1800475"
       y1="18.54999"
       x2="19.280045"
       y2="18.54999" /></defs><sodipodi:namedview
     stroke="#ef2929"
     fill="#f57900"
     id="base"
     pagecolor="#ffffff"
     bordercolor="#666666"
     borderopacity="0.25490196"
     inkscape:pageopacity="0.0"
     inkscape:pageshadow="2"
     inkscape:zoom="4"
     inkscape:cx="22.25"
     inkscape:cy="70.375"
     inkscape:current-layer="layer5"
     showgrid="false"
     inkscape:grid-bbox="true"
     inkscape:document-units="px"
     inkscape:showpageshadow="false"
     inkscape:window-width="2560"
     inkscape:window-height="1011"
     inkscape:window-x="0"
     inkscape:window-y="0"
     width="400px"
     height="300px"
     inkscape:snap-nodes="true"
     inkscape:snap-bbox="true"
     objecttolerance="7"
     gridtolerance="12"
     guidetolerance="13"
     inkscape:window-maximized="1"
     inkscape:pagecheckerboard="false"
     showguides="false"
     inkscape:guide-bbox="true"
     inkscape:locked="false"
     inkscape:measure-start="0,0"
     inkscape:measure-end="0,0"
     inkscape:object-nodes="true"
     inkscape:bbox-nodes="true"
     inkscape:snap-global="true"
     inkscape:object-paths="true"
     inkscape:snap-intersection-paths="true"
     inkscape:snap-bbox-edge-midpoints="true"
     inkscape:snap-bbox-midpoints="true"
     showborder="false"
     inkscape:snap-center="true"
     inkscape:snap-object-midpoints="true"
     inkscape:snap-midpoints="true"
     inkscape:snap-smooth-nodes="true"
     inkscape:snap-text-baseline="true"
     inkscape:deskcolor="#d1d1d1"><inkscape:grid
       type="xygrid"
       id="grid5883"
       spacingx="2"
       spacingy="2"
       enabled="true"
       visible="false"
       empspacing="4"
       originx="0"
       originy="0"
       units="px" /><sodipodi:guide
       position="64,8"
       orientation="0,1"
       id="guide1073"
       inkscape:locked="false"
       inkscape:label=""
       inkscape:color="rgb(0,0,255)" /><sodipodi:guide
       position="12,64"
       orientation="1,0"
       id="guide1075"
       inkscape:locked="false"
       inkscape:label=""
       inkscape:color="rgb(0,0,255)" /><sodipodi:guide
       position="64,104"
       orientation="0,1"
       id="guide1099"
       inkscape:locked="false"
       inkscape:label=""
       inkscape:color="rgb(0,0,255)" /><sodipodi:guide
       position="64,128"
       orientation="0,1"
       id="guide993"
       inkscape:locked="false"
       inkscape:label=""
       inkscape:color="rgb(0,0,255)" /><sodipodi:guide
       position="104,64"
       orientation="1,0"
       id="guide995"
       inkscape:locked="false"
       inkscape:label=""
       inkscape:color="rgb(0,0,255)" /><sodipodi:guide
       position="9.2651362e-08,64"
       orientation="1,0"
       id="guide867"
       inkscape:locked="false"
       inkscape:label=""
       inkscape:color="rgb(0,0,255)" /><sodipodi:guide
       position="120,64"
       orientation="1,0"
       id="guide869"
       inkscape:locked="false"
       inkscape:label=""
       inkscape:color="rgb(0,0,255)" /><sodipodi:guide
       position="64,116"
       orientation="0,1"
       id="guide871"
       inkscape:locked="false"
       inkscape:label=""
       inkscape:color="rgb(0,0,255)" /><inkscape:grid
       type="xygrid"
       id="grid873"
       spacingx="1"
       spacingy="1"
       empspacing="8"
       color="#000000"
       opacity="0.490196"
       empcolor="#000000"
       empopacity="0.08627451"
       dotted="true"
       originx="0"
       originy="0"
       units="px"
       visible="false" /><sodipodi:guide
       position="24,64"
       orientation="1,0"
       id="guide877"
       inkscape:locked="false"
       inkscape:label=""
       inkscape:color="rgb(0,0,255)" /><sodipodi:guide
       position="116,64"
       orientation="1,0"
       id="guide879"
       inkscape:locked="false"
       inkscape:label=""
       inkscape:color="rgb(0,0,255)" /><sodipodi:guide
       position="64,120"
       orientation="0,1"
       id="guide881"
       inkscape:locked="false"
       inkscape:label=""
       inkscape:color="rgb(0,0,255)" /><sodipodi:guide
       position="64,12"
       orientation="0,1"
       id="guide883"
       inkscape:locked="false"
       inkscape:label=""
       inkscape:color="rgb(0,0,255)" /><sodipodi:guide
       position="8,64"
       orientation="1,0"
       id="guide885"
       inkscape:locked="false"
       inkscape:label=""
       inkscape:color="rgb(0,0,255)" /><sodipodi:guide
       position="128,64"
       orientation="1,0"
       id="guide887"
       inkscape:locked="false"
       inkscape:label=""
       inkscape:color="rgb(0,0,255)" /><sodipodi:guide
       position="64,0"
       orientation="0,1"
       id="guide897"
       inkscape:locked="false"
       inkscape:label=""
       inkscape:color="rgb(0,0,255)" /><sodipodi:guide
       position="64,24"
       orientation="0,1"
       id="guide899"
       inkscape:locked="false"
       inkscape:label=""
       inkscape:color="rgb(0,0,255)" /><sodipodi:guide
       position="256,256"
       orientation="-0.70710678,0.70710678"
       id="guide950"
       inkscape:locked="false"
       inkscape:label=""
       inkscape:color="rgb(0,0,255)" /><sodipodi:guide
       position="64,64"
       orientation="0.70710678,0.70710678"
       id="guide952"
       inkscape:locked="false"
       inkscape:label=""
       inkscape:color="rgb(0,0,255)" /><sodipodi:guide
       position="68.1474,32.7174"
       inkscape:color="rgb(167,0,255)"
       inkscape:label="Measure"
       orientation="0.109702,0.993965"
       id="guide1"
       inkscape:locked="false" /><sodipodi:guide
       position="68.1474,32.7174"
       inkscape:color="rgb(167,0,255)"
       inkscape:label=""
       orientation="-0,1"
       id="guide2"
       inkscape:locked="false" /><sodipodi:guide
       position="68.1474,32.7174"
       inkscape:color="rgb(167,0,255)"
       inkscape:label="Start"
       orientation="1,0"
       id="guide3"
       inkscape:locked="false" /><sodipodi:guide
       position="94.5755,29.8005"
       inkscape:color="rgb(167,0,255)"
       inkscape:label="End"
       orientation="-0,1"
       id="guide4"
       inkscape:locked="false" /><sodipodi:guide
       position="94.5755,29.8005"
       inkscape:color="rgb(167,0,255)"
       inkscape:label=""
       orientation="1,0"
       id="guide5"
       inkscape:locked="false" /><sodipodi:guide
       position="68.1474,32.7174"
       inkscape:color="rgb(167,0,255)"
       inkscape:label="Measure"
       orientation="0.109702,0.993965"
       id="guide6"
       inkscape:locked="false" /><sodipodi:guide
       position="68.1474,32.7174"
       inkscape:color="rgb(167,0,255)"
       inkscape:label=""
       orientation="-0,1"
       id="guide7"
       inkscape:locked="false" /><sodipodi:guide
       position="68.1474,32.7174"
       inkscape:color="rgb(167,0,255)"
       inkscape:label="Start"
       orientation="1,0"
       id="guide8"
       inkscape:locked="false" /><sodipodi:guide
       position="94.5755,29.8005"
       inkscape:color="rgb(167,0,255)"
       inkscape:label="End"
       orientation="-0,1"
       id="guide9"
       inkscape:locked="false" /><sodipodi:guide
       position="94.5755,29.8005"
       inkscape:color="rgb(167,0,255)"
       inkscape:label=""
       orientation="1,0"
       id="guide10"
       inkscape:locked="false" /></sodipodi:namedview><metadata
     id="metadata4"><rdf:RDF><cc:Work
         rdf:about=""><dc:format>image/svg+xml</dc:format><dc:type
           rdf:resource="http://purl.org/dc/dcmitype/StillImage" /><dc:creator><cc:Agent><dc:title>GNOME Design Team</dc:title></cc:Agent></dc:creator><dc:source /><cc:license
           rdf:resource="http://creativecommons.org/licenses/by-sa/4.0/" /><dc:title>Adwaita Icon Template</dc:title><dc:subject><rdf:Bag /></dc:subject><dc:date /><dc:rights><cc:Agent><dc:title /></cc:Agent></dc:rights><dc:publisher><cc:Agent><dc:title /></cc:Agent></dc:publisher><dc:identifier /><dc:relation /><dc:language /><dc:coverage /><dc:description /><dc:contributor><cc:Agent><dc:title /></cc:Agent></dc:contributor></cc:Work><cc:License
         rdf:about="http://creativecommons.org/licenses/by-sa/4.0/"><cc:permits
           rdf:resource="http://creativecommons.org/ns#Reproduction" /><cc:permits
           rdf:resource="http://creativecommons.org/ns#Distribution" /><cc:requires
           rdf:resource="http://creativecommons.org/ns#Notice" /><cc:requires
           rdf:resource="http://creativecommons.org/ns#Attribution" /><cc:permits
           rdf:resource="http://creativecommons.org/ns#DerivativeWorks" /><cc:requires
           rdf:resource="http://creativecommons.org/ns#ShareAlike" /></cc:License></rdf:RDF></metadata><g
     id="layer1"
     inkscape:label="App Icon"
     inkscape:groupmode="layer"
     style="display:none"
     transform="translate(0,-172)"
     sodipodi:insensitive="true"><g
       inkscape:groupmode="layer"
       id="layer2"
       inkscape:label="baseplate"
       style="display:inline"
       sodipodi:insensitive="true"><rect
         style="display:inline;overflow:visible;visibility:visible;fill:#f0f0f0;fill-opacity:1;fill-rule:nonzero;stroke:none;stroke-width:0.5;marker:none;enable-background:accumulate"
         id="rect13805"
         width="128"
         height="128"
         x="9.2651362e-08"
         y="172"
         inkscape:label="512x512" /></g><g
       inkscape:groupmode="layer"
       id="layer3"
       inkscape:label="hairlines"
       style="display:inline"
       sodipodi:insensitive="true"><circle
         cx="64.000031"
         cy="236"
         r="59.504131"
         id="circle2892"
         style="display:inline;opacity:0.1;vector-effect:none;fill:none;fill-opacity:1;stroke:#000000;stroke-width:0.99;stroke-linecap:butt;stroke-linejoin:miter;stroke-miterlimit:4;stroke-dasharray:0.99, 0.99;stroke-dashoffset:0;stroke-opacity:1;marker:none;marker-start:none;marker-mid:none;marker-end:none;paint-order:normal;enable-background:new" /><rect
         ry="7.9292889"
         rx="8.701004"
         y="180.49496"
         x="20.495007"
         height="111.01005"
         width="87.009987"
         id="rect2894"
         style="display:inline;opacity:0.1;vector-effect:none;fill:none;fill-opacity:1;stroke:#000000;stroke-width:0.99;stroke-linecap:butt;stroke-linejoin:miter;stroke-miterlimit:4;stroke-dasharray:0.99, 0.99;stroke-dashoffset:0;stroke-opacity:1;marker:none;marker-start:none;marker-mid:none;marker-end:none;paint-order:normal;enable-background:new" /><rect
         ry="7.9238095"
         rx="7.9238095"
         y="184.49524"
         x="12.495266"
         height="103.00952"
         width="103.00952"
         id="rect2896"
         style="display:inline;opacity:0.1;vector-effect:none;fill:none;fill-opacity:1;stroke:#000000;stroke-width:0.99;stroke-linecap:butt;stroke-linejoin:miter;stroke-miterlimit:4;stroke-dasharray:0.99, 0.99;stroke-dashoffset:0;stroke-opacity:1;marker:none;marker-start:none;marker-mid:none;marker-end:none;paint-order:normal;enable-background:new" /><rect
         ry="8.701005"
         rx="7.9292889"
         y="200.49496"
         x="8.4950066"
         height="87.010048"
         width="111.01004"
         id="rect2898"
         style="display:inline;opacity:0.1;vector-effect:none;fill:none;fill-opacity:1;stroke:#000000;stroke-width:0.99;stroke-linecap:butt;stroke-linejoin:miter;stroke-miterlimit:4;stroke-dasharray:0.99, 0.99;stroke-dashoffset:0;stroke-opacity:1;marker:none;marker-start:none;marker-mid:none;marker-end:none;paint-order:normal;enable-background:new" /><path
         inkscape:connector-curvature="0"
         id="path2900"
         d="M 2.6203015e-5,288.99999 H 128.00003"
         style="display:inline;fill:none;stroke:#62a0ea;stroke-width:2;stroke-linecap:butt;stroke-linejoin:miter;stroke-miterlimit:4;stroke-dasharray:none;stroke-opacity:1;enable-background:new" /></g></g><g
     inkscape:groupmode="layer"
     id="layer5"
     inkscape:label="Layer"
     style="display:none"
     transform="matrix(1.331796,0,0,1.331796,-19.663422,-17.138167)"
     sodipodi:insensitive="true"><g
       id="g8"
       transform="matrix(3.854967,0,0,3.854967,17.408489,16.714033)"
       style="display:inline"><path
         d="m 22.56,12.25 c 0,-0.78 -0.07,-1.53 -0.2,-2.25 H 12 v 4.26 h 5.92 c -0.26,1.37 -1.04,2.53 -2.21,3.31 v 2.77 h 3.57 c 2.08,-1.92 3.28,-4.74 3.28,-8.09 z"
         fill="#4285f4"
         id="path5"
         style="display:inline;fill:#1c71d8;fill-opacity:1"
         sodipodi:nodetypes="scccccccs" /><path
         id="path8"
         style="display:inline;fill:#c01c28;fill-opacity:1"
         d="m 11.999968,0.99983382 c -4.2999959,0 -8.0099224,2.47019578 -9.8199205,6.07019218 L 5.8400982,9.909808 C 6.7100974,7.3098106 9.1399706,5.3798365 11.999968,5.3798365 c 1.619998,0 3.060275,0.5600321 4.210274,1.640031 L 19.360095,3.8700148 V 2.8065532 l -1.696776,-1.1678318 0.07498,0.9808774 C 16.113089,1.5944105 14.190255,0.99983382 11.999968,0.99983382 Z" /><path
         d="M 5.84,14.09 C 5.62,13.43 5.49,12.73 5.49,12 5.49,11.27 5.62,10.57 5.84,9.91 V 7.07 H 2.18 C 1.43,8.55 1,10.22 1,12 c 0,1.78 0.43,3.45 1.18,4.93 l 2.85,-2.22 z"
         fill="#fbbc05"
         id="path7"
         style="display:inline;fill:#e5a50a;fill-opacity:1"
         sodipodi:nodetypes="cscccsccc" /><path
         id="path6"
         style="display:inline;fill:url(#linearGradient16);fill-opacity:1"
         d="m 2.1800475,14.099816 v 1.776827 1.063462 c 1.8099981,3.589996 5.5199246,6.060059 9.8199205,6.060059 2.969997,0 5.460078,-0.979922 7.280076,-2.659921 v -1.063968 l -1.533634,-0.966691 0.0066,0.845601 -2.042819,-1.585312 c -0.979999,0.659999 -2.230211,1.059915 -3.710209,1.059915 -2.8599974,0 -5.2898706,-1.929974 -6.1598698,-4.529972 z" /></g><path
       id="rect18"
       style="fill:#1c71d8;fill-opacity:1;stroke-width:0.154489"
       d="m 104.37654,59.837218 v 4.100161 l -6.443828,3.308058 0.199106,-8.286442 z"
       sodipodi:nodetypes="ccccc" /><path
       id="rect19"
       style="fill:#e5a50a;fill-opacity:1;stroke-width:0.750866"
       d="m 25.081661,58.631677 0.234646,4.717842 -4.052851,-0.375882 v -4.100161 z"
       sodipodi:nodetypes="ccccc" /><g
       id="g12"
       transform="matrix(3.854967,0,0,3.854967,17.408489,12.613872)"
       style="display:inline"><path
         d="m 22.56,12.25 c 0,-0.78 -0.07,-1.53 -0.2,-2.25 H 12 v 4.26 h 5.92 c -0.26,1.37 -1.04,2.53 -2.21,3.31 v 2.77 h 3.57 c 2.08,-1.92 3.28,-4.74 3.28,-8.09 z"
         fill="#4285f4"
         id="path9"
         style="display:inline;fill:#3584e4;fill-opacity:1"
         sodipodi:nodetypes="scccccccs" /><path
         d="m 12,23 c 2.97,0 5.46,-0.98 7.28,-2.66 L 15.71,17.57 C 14.73,18.23 13.48,18.63 12,18.63 9.14,18.63 6.71,16.7 5.84,14.1 H 2.18 v 2.84 C 3.99,20.53 7.7,23 12,23 Z"
         fill="#34a853"
         id="path10"
         style="display:inline;fill:#2ec27e;fill-opacity:1"
         sodipodi:nodetypes="sccscccs" /><path
         d="M 5.84,14.09 C 5.62,13.43 5.49,12.73 5.49,12 5.49,11.27 5.62,10.57 5.84,9.91 V 7.07 H 2.18 C 1.43,8.55 1,10.22 1,12 c 0,1.78 0.43,3.45 1.18,4.93 l 2.85,-2.22 z"
         fill="#fbbc05"
         id="path11"
         style="display:inline;fill:#f5c211;fill-opacity:1"
         sodipodi:nodetypes="cscccsccc" /><path
         d="m 12,5.38 c 1.62,0 3.06,0.56 4.21,1.64 L 19.36,3.87 C 17.45,2.09 14.97,1 12,1 7.7,1 3.99,3.47 2.18,7.07 L 5.84,9.91 C 6.71,7.31 9.14,5.38 12,5.38 Z"
         fill="#ea4335"
         id="path12"
         style="display:inline;fill:#ed333b;fill-opacity:1"
         sodipodi:nodetypes="sccsccs" /></g></g><g
     inkscape:groupmode="layer"
     id="g29"
     inkscape:label="Layer copy"
     style="display:inline"
     transform="matrix(1.4246854,0,0,1.3317952,-25.498737,-17.138121)"><g
       id="g22"
       transform="matrix(3.854967,0,0,3.854967,17.408489,16.714033)"
       style="display:inline"><path
         d="m 22.56,12.25 c 0,-0.78 -0.07,-1.53 -0.2,-2.25 H 12 v 4.26 h 5.92 c -0.26,1.37 -1.04,2.53 -2.21,3.31 v 2.77 h 3.57 c 2.08,-1.92 3.28,-4.74 3.28,-8.09 z"
         fill="#4285f4"
         id="path19"
         style="display:inline;fill:#1c71d8;fill-opacity:1"
         sodipodi:nodetypes="scccccccs" /><path
         id="path20"
         style="display:inline;fill:#c01c28;fill-opacity:1"
         d="m 11.999968,0.99983382 c -4.2999959,0 -8.0099224,2.47019578 -9.8199205,6.07019218 L 5.8400982,9.909808 C 6.7100974,7.3098106 9.1399706,5.3798365 11.999968,5.3798365 c 1.619998,0 3.060275,0.5600321 4.210274,1.640031 L 19.360095,3.8700148 V 2.8065532 l -1.696776,-1.1678318 0.07498,0.9808774 C 16.113089,1.5944105 14.190255,0.99983382 11.999968,0.99983382 Z" /><path
         d="M 5.84,14.09 C 5.62,13.43 5.49,12.73 5.49,12 5.49,11.27 5.62,10.57 5.84,9.91 V 7.07 H 2.18 C 1.43,8.55 1,10.22 1,12 c 0,1.78 0.43,3.45 1.18,4.93 l 2.85,-2.22 z"
         fill="#fbbc05"
         id="path21"
         style="display:inline;fill:#e5a50a;fill-opacity:1"
         sodipodi:nodetypes="cscccsccc" /><path
         id="path22"
         style="display:inline;fill:url(#linearGradient29);fill-opacity:1"
         d="m 2.1800475,14.099816 v 1.776827 1.063462 c 1.8099981,3.589996 5.5199246,6.060059 9.8199205,6.060059 2.969997,0 5.460078,-0.979922 7.280076,-2.659921 v -1.063968 l -1.533634,-0.966691 0.0066,0.845601 -2.042819,-1.585312 c -0.979999,0.659999 -2.230211,1.059915 -3.710209,1.059915 -2.8599974,0 -5.2898706,-1.929974 -6.1598698,-4.529972 z" /></g><path
       id="path23"
       style="fill:#1c71d8;fill-opacity:1;stroke-width:0.154489"
       d="m 104.37654,59.837218 v 4.100161 l -6.443828,3.308058 0.199106,-8.286442 z"
       sodipodi:nodetypes="ccccc" /><path
       id="path24"
       style="fill:#e5a50a;fill-opacity:1;stroke-width:0.750866"
       d="m 25.081661,58.631677 0.234646,4.717842 -4.052851,-0.375882 v -4.100161 z"
       sodipodi:nodetypes="ccccc" /><g
       id="g28"
       transform="matrix(3.854967,0,0,3.854967,17.408489,12.613872)"
       style="display:inline"><path
         d="m 22.56,12.25 c 0,-0.78 -0.07,-1.53 -0.2,-2.25 H 12 v 4.26 h 5.92 c -0.26,1.37 -1.04,2.53 -2.21,3.31 v 2.77 h 3.57 c 2.08,-1.92 3.28,-4.74 3.28,-8.09 z"
         fill="#4285f4"
         id="path25"
         style="display:inline;fill:#3584e4;fill-opacity:1"
         sodipodi:nodetypes="scccccccs" /><path
         d="m 12,23 c 2.97,0 5.46,-0.98 7.28,-2.66 L 15.71,17.57 C 14.73,18.23 13.48,18.63 12,18.63 9.14,18.63 6.71,16.7 5.84,14.1 H 2.18 v 2.84 C 3.99,20.53 7.7,23 12,23 Z"
         fill="#34a853"
         id="path26"
         style="display:inline;fill:#2ec27e;fill-opacity:1"
         sodipodi:nodetypes="sccscccs" /><path
         d="M 5.84,14.09 C 5.62,13.43 5.49,12.73 5.49,12 5.49,11.27 5.62,10.57 5.84,9.91 V 7.07 H 2.18 C 1.43,8.55 1,10.22 1,12 c 0,1.78 0.43,3.45 1.18,4.93 l 2.85,-2.22 z"
         fill="#fbbc05"
         id="path27"
         style="display:inline;fill:#f5c211;fill-opacity:1"
         sodipodi:nodetypes="cscccsccc" /><path
         d="m 12,5.38 c 1.62,0 3.06,0.56 4.21,1.64 L 19.36,3.87 C 17.45,2.09 14.97,1 12,1 7.7,1 3.99,3.47 2.18,7.07 L 5.84,9.91 C 6.71,7.31 9.14,5.38 12,5.38 Z"
         fill="#ea4335"
         id="path28"
         style="display:inline;fill:#ed333b;fill-opacity:1"
         sodipodi:nodetypes="sccsccs" /></g></g></svg>
