<?xml version="1.0" encoding="UTF-8" standalone="no"?>
<!-- Created with Inkscape (http://www.inkscape.org/) -->

<svg
   inkscape:export-ydpi="96"
   inkscape:export-xdpi="96"
   inkscape:export-filename="triforce.svg"
   width="128"
   height="128"
   id="svg11300"
   sodipodi:version="0.32"
   inkscape:version="1.3.2 (091e20e, 2023-11-25)"
   sodipodi:docname="steam.svg"
   inkscape:output_extension="org.inkscape.output.svg.inkscape"
   version="1.0"
   style="display:inline;enable-background:new"
   viewBox="0 0 128 128"
   xml:space="preserve"
   xmlns:inkscape="http://www.inkscape.org/namespaces/inkscape"
   xmlns:sodipodi="http://sodipodi.sourceforge.net/DTD/sodipodi-0.dtd"
   xmlns:xlink="http://www.w3.org/1999/xlink"
   xmlns="http://www.w3.org/2000/svg"
   xmlns:svg="http://www.w3.org/2000/svg"
   xmlns:rdf="http://www.w3.org/1999/02/22-rdf-syntax-ns#"
   xmlns:cc="http://creativecommons.org/ns#"
   xmlns:dc="http://purl.org/dc/elements/1.1/"><title
     id="title4162">Adwaita Icon Template</title><defs
     id="defs3"><linearGradient
       id="linearGradient5"
       inkscape:collect="always"><stop
         style="stop-color:#1a5fb4;stop-opacity:1;"
         offset="0.09248555"
         id="stop5" /><stop
         style="stop-color:#3584e4;stop-opacity:1;"
         offset="0.28034681"
         id="stop7" /><stop
         style="stop-color:#1a5fb4;stop-opacity:1;"
         offset="0.61705202"
         id="stop6" /><stop
         style="stop-color:#1a5fb4;stop-opacity:1;"
         offset="1"
         id="stop8" /></linearGradient><linearGradient
       inkscape:collect="always"
       xlink:href="#linearGradient5"
       id="linearGradient6"
       x1="7.109375"
       y1="68.199928"
       x2="120.89062"
       y2="68.199928"
       gradientUnits="userSpaceOnUse" /></defs><sodipodi:namedview
     stroke="#ef2929"
     fill="#f57900"
     id="base"
     pagecolor="#ffffff"
     bordercolor="#666666"
     borderopacity="0.25490196"
     inkscape:pageopacity="0.0"
     inkscape:pageshadow="2"
     inkscape:zoom="4"
     inkscape:cx="21.75"
     inkscape:cy="77.875"
     inkscape:current-layer="layer5"
     showgrid="false"
     inkscape:grid-bbox="true"
     inkscape:document-units="px"
     inkscape:showpageshadow="false"
     inkscape:window-width="2560"
     inkscape:window-height="1011"
     inkscape:window-x="0"
     inkscape:window-y="0"
     width="400px"
     height="300px"
     inkscape:snap-nodes="true"
     inkscape:snap-bbox="true"
     objecttolerance="7"
     gridtolerance="12"
     guidetolerance="13"
     inkscape:window-maximized="1"
     inkscape:pagecheckerboard="false"
     showguides="false"
     inkscape:guide-bbox="true"
     inkscape:locked="false"
     inkscape:measure-start="0,0"
     inkscape:measure-end="0,0"
     inkscape:object-nodes="true"
     inkscape:bbox-nodes="true"
     inkscape:snap-global="true"
     inkscape:object-paths="true"
     inkscape:snap-intersection-paths="true"
     inkscape:snap-bbox-edge-midpoints="true"
     inkscape:snap-bbox-midpoints="true"
     showborder="false"
     inkscape:snap-center="true"
     inkscape:snap-object-midpoints="true"
     inkscape:snap-midpoints="true"
     inkscape:snap-smooth-nodes="true"
     inkscape:snap-text-baseline="true"
     inkscape:deskcolor="#d1d1d1"><inkscape:grid
       type="xygrid"
       id="grid5883"
       spacingx="2"
       spacingy="2"
       enabled="true"
       visible="false"
       empspacing="4"
       originx="0"
       originy="0"
       units="px" /><sodipodi:guide
       position="64,8"
       orientation="0,1"
       id="guide1073"
       inkscape:locked="false"
       inkscape:label=""
       inkscape:color="rgb(0,0,255)" /><sodipodi:guide
       position="12,64"
       orientation="1,0"
       id="guide1075"
       inkscape:locked="false"
       inkscape:label=""
       inkscape:color="rgb(0,0,255)" /><sodipodi:guide
       position="64,104"
       orientation="0,1"
       id="guide1099"
       inkscape:locked="false"
       inkscape:label=""
       inkscape:color="rgb(0,0,255)" /><sodipodi:guide
       position="64,128"
       orientation="0,1"
       id="guide993"
       inkscape:locked="false"
       inkscape:label=""
       inkscape:color="rgb(0,0,255)" /><sodipodi:guide
       position="104,64"
       orientation="1,0"
       id="guide995"
       inkscape:locked="false"
       inkscape:label=""
       inkscape:color="rgb(0,0,255)" /><sodipodi:guide
       position="9.2651362e-08,64"
       orientation="1,0"
       id="guide867"
       inkscape:locked="false"
       inkscape:label=""
       inkscape:color="rgb(0,0,255)" /><sodipodi:guide
       position="120,64"
       orientation="1,0"
       id="guide869"
       inkscape:locked="false"
       inkscape:label=""
       inkscape:color="rgb(0,0,255)" /><sodipodi:guide
       position="64,116"
       orientation="0,1"
       id="guide871"
       inkscape:locked="false"
       inkscape:label=""
       inkscape:color="rgb(0,0,255)" /><inkscape:grid
       type="xygrid"
       id="grid873"
       spacingx="1"
       spacingy="1"
       empspacing="8"
       color="#000000"
       opacity="0.49019608"
       empcolor="#000000"
       empopacity="0.08627451"
       dotted="true"
       originx="0"
       originy="0"
       units="px"
       visible="false" /><sodipodi:guide
       position="24,64"
       orientation="1,0"
       id="guide877"
       inkscape:locked="false"
       inkscape:label=""
       inkscape:color="rgb(0,0,255)" /><sodipodi:guide
       position="116,64"
       orientation="1,0"
       id="guide879"
       inkscape:locked="false"
       inkscape:label=""
       inkscape:color="rgb(0,0,255)" /><sodipodi:guide
       position="64,120"
       orientation="0,1"
       id="guide881"
       inkscape:locked="false"
       inkscape:label=""
       inkscape:color="rgb(0,0,255)" /><sodipodi:guide
       position="64,12"
       orientation="0,1"
       id="guide883"
       inkscape:locked="false"
       inkscape:label=""
       inkscape:color="rgb(0,0,255)" /><sodipodi:guide
       position="8,64"
       orientation="1,0"
       id="guide885"
       inkscape:locked="false"
       inkscape:label=""
       inkscape:color="rgb(0,0,255)" /><sodipodi:guide
       position="128,64"
       orientation="1,0"
       id="guide887"
       inkscape:locked="false"
       inkscape:label=""
       inkscape:color="rgb(0,0,255)" /><sodipodi:guide
       position="64,0"
       orientation="0,1"
       id="guide897"
       inkscape:locked="false"
       inkscape:label=""
       inkscape:color="rgb(0,0,255)" /><sodipodi:guide
       position="64,24"
       orientation="0,1"
       id="guide899"
       inkscape:locked="false"
       inkscape:label=""
       inkscape:color="rgb(0,0,255)" /><sodipodi:guide
       position="256,256"
       orientation="-0.70710678,0.70710678"
       id="guide950"
       inkscape:locked="false"
       inkscape:label=""
       inkscape:color="rgb(0,0,255)" /><sodipodi:guide
       position="64,64"
       orientation="0.70710678,0.70710678"
       id="guide952"
       inkscape:locked="false"
       inkscape:label=""
       inkscape:color="rgb(0,0,255)" /></sodipodi:namedview><metadata
     id="metadata4"><rdf:RDF><cc:Work
         rdf:about=""><dc:format>image/svg+xml</dc:format><dc:type
           rdf:resource="http://purl.org/dc/dcmitype/StillImage" /><dc:creator><cc:Agent><dc:title>GNOME Design Team</dc:title></cc:Agent></dc:creator><dc:source /><cc:license
           rdf:resource="http://creativecommons.org/licenses/by-sa/4.0/" /><dc:title>Adwaita Icon Template</dc:title><dc:subject><rdf:Bag /></dc:subject><dc:date /><dc:rights><cc:Agent><dc:title /></cc:Agent></dc:rights><dc:publisher><cc:Agent><dc:title /></cc:Agent></dc:publisher><dc:identifier /><dc:relation /><dc:language /><dc:coverage /><dc:description /><dc:contributor><cc:Agent><dc:title /></cc:Agent></dc:contributor></cc:Work><cc:License
         rdf:about="http://creativecommons.org/licenses/by-sa/4.0/"><cc:permits
           rdf:resource="http://creativecommons.org/ns#Reproduction" /><cc:permits
           rdf:resource="http://creativecommons.org/ns#Distribution" /><cc:requires
           rdf:resource="http://creativecommons.org/ns#Notice" /><cc:requires
           rdf:resource="http://creativecommons.org/ns#Attribution" /><cc:permits
           rdf:resource="http://creativecommons.org/ns#DerivativeWorks" /><cc:requires
           rdf:resource="http://creativecommons.org/ns#ShareAlike" /></cc:License></rdf:RDF></metadata><g
     id="layer1"
     inkscape:label="App Icon"
     inkscape:groupmode="layer"
     style="display:none"
     transform="translate(0,-172)"
     sodipodi:insensitive="true"><g
       inkscape:groupmode="layer"
       id="layer2"
       inkscape:label="baseplate"
       style="display:inline"
       sodipodi:insensitive="true"><rect
         style="display:inline;overflow:visible;visibility:visible;fill:#f0f0f0;fill-opacity:1;fill-rule:nonzero;stroke:none;stroke-width:0.5;marker:none;enable-background:accumulate"
         id="rect13805"
         width="128"
         height="128"
         x="9.2651362e-08"
         y="172"
         inkscape:label="512x512" /></g><g
       inkscape:groupmode="layer"
       id="layer3"
       inkscape:label="hairlines"
       style="display:inline"
       sodipodi:insensitive="true"><circle
         cx="64.000031"
         cy="236"
         r="59.504131"
         id="circle2892"
         style="display:inline;opacity:0.1;vector-effect:none;fill:none;fill-opacity:1;stroke:#000000;stroke-width:0.99;stroke-linecap:butt;stroke-linejoin:miter;stroke-miterlimit:4;stroke-dasharray:0.99, 0.99;stroke-dashoffset:0;stroke-opacity:1;marker:none;marker-start:none;marker-mid:none;marker-end:none;paint-order:normal;enable-background:new" /><rect
         ry="7.9292889"
         rx="8.701004"
         y="180.49496"
         x="20.495007"
         height="111.01005"
         width="87.009987"
         id="rect2894"
         style="display:inline;opacity:0.1;vector-effect:none;fill:none;fill-opacity:1;stroke:#000000;stroke-width:0.99;stroke-linecap:butt;stroke-linejoin:miter;stroke-miterlimit:4;stroke-dasharray:0.99, 0.99;stroke-dashoffset:0;stroke-opacity:1;marker:none;marker-start:none;marker-mid:none;marker-end:none;paint-order:normal;enable-background:new" /><rect
         ry="7.9238095"
         rx="7.9238095"
         y="184.49524"
         x="12.495266"
         height="103.00952"
         width="103.00952"
         id="rect2896"
         style="display:inline;opacity:0.1;vector-effect:none;fill:none;fill-opacity:1;stroke:#000000;stroke-width:0.99;stroke-linecap:butt;stroke-linejoin:miter;stroke-miterlimit:4;stroke-dasharray:0.99, 0.99;stroke-dashoffset:0;stroke-opacity:1;marker:none;marker-start:none;marker-mid:none;marker-end:none;paint-order:normal;enable-background:new" /><rect
         ry="8.701005"
         rx="7.9292889"
         y="200.49496"
         x="8.4950066"
         height="87.010048"
         width="111.01004"
         id="rect2898"
         style="display:inline;opacity:0.1;vector-effect:none;fill:none;fill-opacity:1;stroke:#000000;stroke-width:0.99;stroke-linecap:butt;stroke-linejoin:miter;stroke-miterlimit:4;stroke-dasharray:0.99, 0.99;stroke-dashoffset:0;stroke-opacity:1;marker:none;marker-start:none;marker-mid:none;marker-end:none;paint-order:normal;enable-background:new" /><path
         inkscape:connector-curvature="0"
         id="path2900"
         d="M 2.6203015e-5,288.99999 H 128.00003"
         style="display:inline;fill:none;stroke:#62a0ea;stroke-width:2;stroke-linecap:butt;stroke-linejoin:miter;stroke-miterlimit:4;stroke-dasharray:none;stroke-opacity:1;enable-background:new" /></g></g><g
     inkscape:groupmode="layer"
     id="layer5"
     inkscape:label="Layer"
     transform="matrix(1.0523351,0,0,1.0270738,-3.3494438,-4.6083794)"><path
       id="rect2"
       style="fill:url(#linearGradient6)"
       d="m 63.902344,11.310285 c -27.613221,0 -50.607921,19.610633 -55.8417971,45.632812 l -0.2949219,-0.605468 -0.65625,4.5 v 2.798828 l 30.544922,12.607421 c 2.587397,-1.768559 5.715739,-2.798828 9.078125,-2.798828 0.303435,0 0.603205,0.0073 0.898437,0.02344 L 61.214844,53.81224 v -0.275391 c 0,-11.828243 9.641823,-21.455078 21.492187,-21.455078 11.850362,0 21.490239,9.626835 21.490239,21.455078 0,11.82824 -9.639877,21.457031 -21.490239,21.457031 -0.164022,0 -0.324264,-0.0036 -0.488281,-0.0078 l -19.375,13.794922 c 0.01225,0.255549 0.01953,0.512181 0.01953,0.763672 0,8.88335 -7.236939,16.107416 -16.130859,16.107416 -7.8073,0 -14.338283,-5.56535 -15.814453,-12.931635 L 10.798828,84.415753 12.6875,82.548566 9.0703125,80.904035 v 2.798828 C 15.836089,107.58244 37.81514,125.08958 63.902344,125.08958 c 31.475218,0 56.988276,-25.472442 56.988276,-56.88867 0,-31.420286 -25.513058,-56.890626 -56.988276,-56.890625 z m 18.80664,27.927734 c -7.897509,0 -14.324218,6.417393 -14.324218,14.298828 0,7.881436 6.426709,14.294922 14.324218,14.294922 7.893408,0 14.31836,-6.413485 14.31836,-14.294922 0,-7.881436 -6.424952,-14.298828 -14.31836,-14.298828 z m 0.01953,3.53711 c 5.941586,0 10.759765,4.807936 10.759765,10.738281 0,5.930349 -4.818179,10.736328 -10.759765,10.736328 -5.937484,0 -10.75586,-4.805984 -10.75586,-10.736328 0,-5.930345 4.818376,-10.738281 10.75586,-10.738281 z m -32.408204,32.499999 -7.875,0.146485 v 2.800781 l 7.232422,2.984375 c 4.543323,1.890245 6.693246,7.099797 4.798828,11.634766 -1.890319,4.534971 -7.110974,6.679305 -11.654296,4.789062 l -2.478516,-1.021484 1.712891,-1.671875 -6.234375,-2.994141 v 2.800781 c 1.238341,2.579824 3.388452,4.737428 6.238281,5.921872 6.158908,2.5636 13.261228,-0.35242 15.828125,-6.505856 1.242441,-2.977346 1.249688,-6.264551 0.01953,-9.25 -1.230144,-2.985458 -3.554113,-5.31345 -6.535156,-6.554687 -0.614027,-0.254561 -1.238548,-0.442181 -1.865235,-0.589844 z" /><path
       d="m 63.90159,8.510127 c -29.937574,0 -54.4625187,23.043998 -56.7915876,52.326629 L 37.654444,73.443824 c 2.5874,-1.768561 5.716064,-2.798868 9.078453,-2.798868 0.303435,0 0.60277,0.0082 0.898004,0.02436 L 61.215777,51.012332 v -0.27583 c 0,-11.828254 9.640218,-21.453917 21.490592,-21.453917 11.850374,0 21.490591,9.625663 21.490591,21.453917 0,11.828253 -9.640217,21.457973 -21.490591,21.457973 -0.164021,0 -0.323936,-0.004 -0.487955,-0.0082 L 62.843666,85.981913 c 0.01225,0.255549 0.02049,0.511096 0.02049,0.762587 0,8.883359 -7.23734,16.10768 -16.131269,16.10768 -7.807307,0 -14.339364,-5.565282 -15.815535,-12.931577 L 9.0700305,80.90341 c 6.7657835,23.8796 28.7443315,41.38672 54.8315595,41.38672 31.475248,0 56.98841,-25.473743 56.98841,-56.890004 C 120.89,33.979809 95.376838,8.510127 63.90159,8.510127 Z M 42.822684,94.831219 35.823172,91.94311 c 1.238342,2.579826 3.386992,4.737791 6.236823,5.92224 6.158914,2.5636 13.260937,-0.352899 15.827836,-6.506347 1.242442,-2.977349 1.250647,-6.262974 0.02049,-9.248426 -1.230145,-2.985461 -3.555114,-5.313791 -6.53616,-6.555029 -2.964644,-1.229069 -6.138412,-1.184447 -8.926736,-0.133862 l 7.23324,2.985462 c 4.543327,1.890247 6.691977,7.098572 4.797558,11.633546 C 52.5859,94.57567 47.365997,96.721465 42.82267,94.831219 Z M 97.026871,50.736906 c 0,-7.881444 -6.425445,-14.298556 -14.318861,-14.298556 -7.897515,0 -14.32296,6.417112 -14.32296,14.298556 0,7.881444 6.425445,14.294502 14.32296,14.294502 7.893416,0 14.318861,-6.413058 14.318861,-14.294502 z m -25.053906,-0.02435 c 0,-5.930352 4.818058,-10.7371 10.755548,-10.7371 5.941592,0 10.759649,4.806748 10.759649,10.7371 0,5.930354 -4.818057,10.737101 -10.759649,10.737101 -5.93749,0 -10.755548,-4.80675 -10.755548,-10.737101 z"
       fill="#1a1918"
       id="path2"
       style="display:inline;fill:#1c71d8;fill-opacity:1;stroke-width:0.442054"
       sodipodi:nodetypes="sccsccssssccssccsssccccsccccccssssssssss" /></g></svg>
