<?xml version="1.0" encoding="UTF-8" standalone="no"?>
<!-- Created with Inkscape (http://www.inkscape.org/) -->

<svg
   width="128"
   height="128"
   id="svg11300"
   version="1.0"
   style="display:inline;enable-background:new"
   viewBox="0 0 128 128"
   xml:space="preserve"
   sodipodi:docname="Switch.svg"
   inkscape:version="1.3.2 (091e20e, 2023-11-25)"
   xmlns:inkscape="http://www.inkscape.org/namespaces/inkscape"
   xmlns:sodipodi="http://sodipodi.sourceforge.net/DTD/sodipodi-0.dtd"
   xmlns:xlink="http://www.w3.org/1999/xlink"
   xmlns="http://www.w3.org/2000/svg"
   xmlns:svg="http://www.w3.org/2000/svg"
   xmlns:rdf="http://www.w3.org/1999/02/22-rdf-syntax-ns#"
   xmlns:cc="http://creativecommons.org/ns#"
   xmlns:dc="http://purl.org/dc/elements/1.1/"><sodipodi:namedview
     id="namedview1"
     pagecolor="#ffffff"
     bordercolor="#000000"
     borderopacity="0.25"
     inkscape:showpageshadow="2"
     inkscape:pageopacity="0.0"
     inkscape:pagecheckerboard="0"
     inkscape:deskcolor="#d1d1d1"
     inkscape:zoom="3.2148438"
     inkscape:cx="-51.946537"
     inkscape:cy="75.120292"
     inkscape:window-width="2560"
     inkscape:window-height="1011"
     inkscape:window-x="0"
     inkscape:window-y="0"
     inkscape:window-maximized="1"
     inkscape:current-layer="layer1" /><title
     id="title4162">Adwaita Icon Template</title><defs
     id="defs3"><linearGradient
       id="linearGradient1"
       inkscape:collect="always"><stop
         style="stop-color:#c01c28;stop-opacity:1;"
         offset="0"
         id="stop1" /><stop
         style="stop-color:#ed333b;stop-opacity:1;"
         offset="0.09932302"
         id="stop3" /><stop
         style="stop-color:#c01c28;stop-opacity:1;"
         offset="0.19767892"
         id="stop4" /><stop
         style="stop-color:#c01c28;stop-opacity:1;"
         offset="0.80135393"
         id="stop6" /><stop
         style="stop-color:#ed333b;stop-opacity:1;"
         offset="0.89680851"
         id="stop5" /><stop
         style="stop-color:#c01c28;stop-opacity:1;"
         offset="0.99903286"
         id="stop2" /></linearGradient><linearGradient
       inkscape:collect="always"
       xlink:href="#linearGradient1"
       id="linearGradient2"
       x1="0.0006520083"
       y1="12.757604"
       x2="24.000008"
       y2="12.757604"
       gradientUnits="userSpaceOnUse" /></defs><metadata
     id="metadata4"><rdf:RDF><cc:Work
         rdf:about=""><dc:format>image/svg+xml</dc:format><dc:type
           rdf:resource="http://purl.org/dc/dcmitype/StillImage" /><dc:creator><cc:Agent><dc:title>GNOME Design Team</dc:title></cc:Agent></dc:creator><dc:source /><cc:license
           rdf:resource="http://creativecommons.org/licenses/by-sa/4.0/" /><dc:title>Adwaita Icon Template</dc:title><dc:subject><rdf:Bag /></dc:subject><dc:date /><dc:rights><cc:Agent><dc:title /></cc:Agent></dc:rights><dc:publisher><cc:Agent><dc:title /></cc:Agent></dc:publisher><dc:identifier /><dc:relation /><dc:language /><dc:coverage /><dc:description /><dc:contributor><cc:Agent><dc:title /></cc:Agent></dc:contributor></cc:Work><cc:License
         rdf:about="http://creativecommons.org/licenses/by-sa/4.0/"><cc:permits
           rdf:resource="http://creativecommons.org/ns#Reproduction" /><cc:permits
           rdf:resource="http://creativecommons.org/ns#Distribution" /><cc:requires
           rdf:resource="http://creativecommons.org/ns#Notice" /><cc:requires
           rdf:resource="http://creativecommons.org/ns#Attribution" /><cc:permits
           rdf:resource="http://creativecommons.org/ns#DerivativeWorks" /><cc:requires
           rdf:resource="http://creativecommons.org/ns#ShareAlike" /></cc:License></rdf:RDF></metadata><g
     inkscape:groupmode="layer"
     id="layer1"
     inkscape:label="Layer 1"><g
       id="g2"
       transform="matrix(4.3211917,0,0,4.3211917,12.144272,12.142316)"
       style="display:inline;enable-background:new"><path
         fill="#f31014"
         d="M 3.78,7.343 C 3.802,7.734 3.823,7.841 3.983,8.158 4.219,8.64 4.568,8.993 5.05,9.23 5.383,9.396 5.468,9.412 5.901,9.428 6.292,9.444 6.431,9.428 6.694,9.336 7.77,8.972 8.424,7.927 8.237,6.85 8.028,5.58 6.812,4.723 5.564,4.975 5.253,5.034 4.777,5.274 4.52,5.495 4,5.945 3.738,6.587 3.78,7.343 Z"
         id="path1"
         style="fill:#c01c28;fill-opacity:1" /><path
         fill="#f31014"
         d="M 5.136,1.5867862 C 2.746,1.9877924 0.824,3.6442854 0.219,5.8226485 0,6.610607 -0.016,7.0725137 0.01,13.175678 c 0.01,5.60097 0.016,5.73214 0.118,6.16875 0.552,2.333894 2.32,3.995071 4.837,4.542239 0.327,0.07027 0.745,0.08526 3.434,0.09557 2.78,0.02061 3.069,0.01499 3.145,-0.05528 0.075,-0.07027 0.08,-0.968786 0.08,-11.15322 0,-7.5544696 -0.016,-11.1073097 -0.048,-11.1719579 -0.048,-0.086198 -0.134,-0.089945 -3.048,-0.086198 -2.368,0.00562 -3.079,0.020612 -3.39,0.07027 z m 4.482,1.7380059 v 9.4367629 l 0.011,-9.37e-4 v 9.431141 L 7.604,22.167399 C 5.74,22.146787 5.542,22.137417 5.167,22.05122 3.565,21.665205 2.381,20.509969 2.044,19.005259 1.937,18.533046 1.937,6.9535235 2.039,6.4916168 A 4.27,4.0006928 0 0 1 4.61,3.6105559 C 5.264,3.3641432 5.569,3.3341614 7.695,3.3304137 Z m 4.42,-1.7829785 c -0.022,0.014991 -0.032,5.0594241 -0.032,11.2188044 0,10.154452 0.006,11.183201 0.08,11.213183 0.134,0.04497 3.99,0.02998 4.467,-0.02061 a 6.204,5.8127162 0 0 0 4.767,-3.072195 8.19,7.6734599 0 0 0 0.375,-0.812319 C 24.006,19.194519 24,19.425941 24,12.735321 24,7.3938808 23.99,6.596553 23.92,6.260195 23.427,3.8354192 21.451,2.0037202 18.858,1.5877231 c -0.349,-0.055279 -0.883,-0.071207 -2.614,-0.071207 -1.2,-0.00562 -2.191,0.00937 -2.207,0.02436 h 10e-4 z m 2.404,11.6507294 c 0.369,-1.139307 1.66,-1.812023 2.904,-1.505647 v -9.37e-4 a 2.432,2.2786147 0 0 1 1.671,1.451305 c 0.166,0.43661 0.161,1.079344 -0.006,1.481287 -0.305,0.737364 -0.9,1.25455 -1.666,1.445684 -1.243,0.300754 -2.565,-0.401943 -2.924,-1.556242 -0.108,-0.351349 -0.102,-0.94911 0.021,-1.31545 z"
         id="path2"
         style="fill:url(#linearGradient2);fill-opacity:1;stroke-width:0.967952" /></g><g
       id="g5"
       transform="matrix(4.3211917,0,0,4.0486558,12.144272,12.142591)"
       style="display:inline;enable-background:new"><path
         fill="#f31014"
         d="M 3.78,7.343 C 3.802,7.734 3.823,7.841 3.983,8.158 4.219,8.64 4.568,8.993 5.05,9.23 5.383,9.396 5.468,9.412 5.901,9.428 6.292,9.444 6.431,9.428 6.694,9.336 7.77,8.972 8.424,7.927 8.237,6.85 8.028,5.58 6.812,4.723 5.564,4.975 5.253,5.034 4.777,5.274 4.52,5.495 4,5.945 3.738,6.587 3.78,7.343 Z"
         id="path4"
         style="fill:#e01b24;fill-opacity:1" /><path
         fill="#f31014"
         d="M 5.136,0.078 C 2.746,0.506 0.824,2.274 0.219,4.599 0,5.44 -0.016,5.933 0.01,12.447 c 0.01,5.978 0.016,6.118 0.118,6.584 0.552,2.491 2.32,4.264 4.837,4.848 0.327,0.075 0.745,0.091 3.434,0.102 2.78,0.022 3.069,0.016 3.145,-0.059 0.075,-0.075 0.08,-1.034 0.08,-11.904 C 11.624,3.955 11.608,0.163 11.576,0.094 11.528,0.002 11.442,-0.002 8.528,0.002 6.16,0.008 5.449,0.024 5.138,0.077 Z M 9.618,1.933 V 12.005 L 9.629,12.004 V 22.07 L 7.604,22.044 C 5.74,22.022 5.542,22.012 5.167,21.92 3.565,21.508 2.381,20.275 2.044,18.669 1.937,18.165 1.937,5.806 2.039,5.313 A 4.27,4.27 0 0 1 4.61,2.238 C 5.264,1.975 5.569,1.943 7.695,1.939 Z m 4.42,-1.903 c -0.022,0.016 -0.032,5.4 -0.032,11.974 0,10.838 0.006,11.936 0.08,11.968 0.134,0.048 3.99,0.032 4.467,-0.022 a 6.204,6.204 0 0 0 4.767,-3.279 8.19,8.19 0 0 0 0.375,-0.867 C 24.006,18.871 24,19.118 24,11.977 24,6.276 23.99,5.425 23.92,5.066 23.427,2.478 21.451,0.523 18.858,0.079 18.509,0.02 17.975,0.003 16.244,0.003 c -1.2,-0.006 -2.191,0.01 -2.207,0.026 h 10e-4 z m 2.404,12.435 c 0.369,-1.216 1.66,-1.934 2.904,-1.607 v -0.001 a 2.432,2.432 0 0 1 1.671,1.549 c 0.166,0.466 0.161,1.152 -0.006,1.581 -0.305,0.787 -0.9,1.339 -1.666,1.543 -1.243,0.321 -2.565,-0.429 -2.924,-1.661 -0.108,-0.375 -0.102,-1.013 0.021,-1.404 z"
         id="path5"
         style="fill:#e01b24;fill-opacity:1" /></g></g></svg>
