<?xml version="1.0" encoding="UTF-8" standalone="no"?>
<!-- Created with Inkscape (http://www.inkscape.org/) -->

<svg
   width="128"
   height="128"
   id="svg11300"
   version="1.0"
   style="display:inline;enable-background:new"
   viewBox="0 0 128 128"
   xml:space="preserve"
   sodipodi:docname="Triforce.svg"
   inkscape:version="1.3.2 (091e20e, 2023-11-25)"
   xmlns:inkscape="http://www.inkscape.org/namespaces/inkscape"
   xmlns:sodipodi="http://sodipodi.sourceforge.net/DTD/sodipodi-0.dtd"
   xmlns:xlink="http://www.w3.org/1999/xlink"
   xmlns="http://www.w3.org/2000/svg"
   xmlns:svg="http://www.w3.org/2000/svg"
   xmlns:rdf="http://www.w3.org/1999/02/22-rdf-syntax-ns#"
   xmlns:cc="http://creativecommons.org/ns#"
   xmlns:dc="http://purl.org/dc/elements/1.1/"><sodipodi:namedview
     id="namedview1"
     pagecolor="#ffffff"
     bordercolor="#000000"
     borderopacity="0.25"
     inkscape:showpageshadow="2"
     inkscape:pageopacity="0.0"
     inkscape:pagecheckerboard="0"
     inkscape:deskcolor="#d1d1d1"
     inkscape:zoom="4"
     inkscape:cx="33.5"
     inkscape:cy="87.625"
     inkscape:window-width="2560"
     inkscape:window-height="1011"
     inkscape:window-x="0"
     inkscape:window-y="0"
     inkscape:window-maximized="1"
     inkscape:current-layer="g14" /><title
     id="title4162">Adwaita Icon Template</title><defs
     id="defs3"><linearGradient
       id="linearGradient1"
       inkscape:collect="always"><stop
         style="stop-color:#e5a50a;stop-opacity:1;"
         offset="0"
         id="stop1" /><stop
         style="stop-color:#f6d32d;stop-opacity:1;"
         offset="0.03"
         id="stop6" /><stop
         style="stop-color:#e5a50a;stop-opacity:1;"
         offset="0.06"
         id="stop5" /><stop
         style="stop-color:#e5a50a;stop-opacity:1;"
         offset="0.94"
         id="stop4" /><stop
         style="stop-color:#f6d32d;stop-opacity:1;"
         offset="0.97000003"
         id="stop3" /><stop
         style="stop-color:#e5a50a;stop-opacity:1;"
         offset="1"
         id="stop2" /></linearGradient><inkscape:path-effect
       effect="fillet_chamfer"
       id="path-effect15"
       is_visible="true"
       lpeversion="1"
       nodesatellites_param="F,0,0,1,0,0,0,1 @ F,0,0,1,0,0,0,1 @ F,0,0,1,0,0,0,1 @ F,0,0,1,0,0,0,1 @ F,0,0,1,0,0,0,1 @ F,0,0,1,0,0,0,1"
       radius="0"
       unit="px"
       method="auto"
       mode="F"
       chamfer_steps="1"
       flexible="false"
       use_knot_distance="true"
       apply_no_radius="true"
       apply_with_radius="true"
       only_selected="false"
       hide_knots="false" /><inkscape:path-effect
       effect="fillet_chamfer"
       id="path-effect1"
       is_visible="true"
       lpeversion="1"
       nodesatellites_param="F,0,0,1,0,0,0,1 @ F,0,0,1,0,0,0,1 @ F,0,0,1,0,0,0,1 @ F,0,0,1,0,0,0,1 @ F,0,0,1,0,0,0,1 @ F,0,0,1,0,0,0,1"
       radius="0"
       unit="px"
       method="auto"
       mode="F"
       chamfer_steps="1"
       flexible="false"
       use_knot_distance="true"
       apply_no_radius="true"
       apply_with_radius="true"
       only_selected="false"
       hide_knots="false" /><linearGradient
       inkscape:collect="always"
       xlink:href="#linearGradient1"
       id="linearGradient2"
       x1="7.9941406"
       y1="109.82031"
       x2="120.00586"
       y2="109.82031"
       gradientUnits="userSpaceOnUse" /></defs><metadata
     id="metadata4"><rdf:RDF><cc:Work
         rdf:about=""><dc:format>image/svg+xml</dc:format><dc:type
           rdf:resource="http://purl.org/dc/dcmitype/StillImage" /><dc:creator><cc:Agent><dc:title>GNOME Design Team</dc:title></cc:Agent></dc:creator><dc:source /><cc:license
           rdf:resource="http://creativecommons.org/licenses/by-sa/4.0/" /><dc:title>Adwaita Icon Template</dc:title><dc:subject><rdf:Bag /></dc:subject><dc:date /><dc:rights><cc:Agent><dc:title /></cc:Agent></dc:rights><dc:publisher><cc:Agent><dc:title /></cc:Agent></dc:publisher><dc:identifier /><dc:relation /><dc:language /><dc:coverage /><dc:description /><dc:contributor><cc:Agent><dc:title /></cc:Agent></dc:contributor></cc:Work><cc:License
         rdf:about="http://creativecommons.org/licenses/by-sa/4.0/"><cc:permits
           rdf:resource="http://creativecommons.org/ns#Reproduction" /><cc:permits
           rdf:resource="http://creativecommons.org/ns#Distribution" /><cc:requires
           rdf:resource="http://creativecommons.org/ns#Notice" /><cc:requires
           rdf:resource="http://creativecommons.org/ns#Attribution" /><cc:permits
           rdf:resource="http://creativecommons.org/ns#DerivativeWorks" /><cc:requires
           rdf:resource="http://creativecommons.org/ns#ShareAlike" /></cc:License></rdf:RDF></metadata><g
     inkscape:groupmode="layer"
     id="g14"
     inkscape:label="Layer 1 copy"
     style="display:inline"><path
       id="path65"
       style="display:inline;fill:url(#linearGradient2);stroke-width:1.05097;enable-background:new"
       d="m 61.160156,103.64062 v 0.004 0.004 0.004 0.006 0.006 0.002 c -17.722001,0.008 -35.444019,-0.0108 -53.1660154,0.006 V 112 c 0,2.20914 1.790863,4 4.0000004,4 H 116.00586 c 2.20914,0 4,-1.79086 4,-4 v -8.32812 H 70.212891 c -2.209135,0 -3.880909,0.007 -3.736329,0.0312 l 0.01953,0.006 0.01367,0.0977 -0.03906,0.0137 h -0.002 -0.0059 l -0.03516,0.002 h -0.002 l -0.002,0.004 0.111328,0.0117 0.109375,0.0156 -0.01563,0.10937 -0.0039,0.004 -0.01758,-0.002 -0.0332,-0.006 -0.02344,-0.002 -0.154297,-0.0195 -0.04297,-0.006 -0.002,0.0254 h -0.01367 l -0.01367,-0.002 -0.07227,-0.008 -0.0059,0.0293 0.06641,0.0312 -0.05664,0.0898 -0.002,0.006 -0.05078,0.004 -0.05078,-0.002 -0.08984,-0.004 v 0.004 l 0.101562,0.0156 0.01953,0.004 0.0059,0.002 0.01172,0.0801 0.117187,0.0156 0.25586,0.0391 0.03711,0.006 0.02148,0.008 -0.03125,0.10742 -0.04492,-0.002 -0.138672,-0.0156 -0.132813,-0.0156 -0.08984,0.18164 -0.04297,0.004 h -0.154297 l -0.146485,0.18945 -0.173828,-0.006 -0.002,0.006 -0.0078,0.004 0.05078,0.0449 0.111328,0.0156 0.107422,0.0195 0.04297,0.0176 -0.0059,0.0469 0.08984,0.0195 0.04102,0.0137 L 66,105.19922 l -0.318359,-0.0332 h -0.002 v 0.004 0.002 l -0.02148,0.2246 -0.03906,-0.006 -0.0078,-0.002 -0.03125,-0.004 -0.248047,-0.0332 -0.05273,0.23242 -0.04102,0.23047 0.275391,0.0566 0.236328,0.20899 -0.248047,0.12304 -0.767578,-0.15624 -0.04687,-0.01 -0.01563,0.10937 0.03711,0.002 0.02734,-0.002 0.01758,0.0137 -0.01172,0.0957 -0.06055,0.002 0.0059,0.0547 -0.0332,0.0293 -0.0957,0.0156 -0.06641,0.002 v 0.002 h 0.002 l 0.05469,0.0234 v 0.002 l 0.01758,0.0156 0.01367,0.002 0.06836,0.0117 0.0098,0.10546 h -0.0078 l 0.002,0.0332 -0.01563,0.0254 -0.03906,0.0215 -0.09766,0.008 -0.169922,-0.006 -0.02734,-0.002 -0.07227,0.0742 h -0.02344 l -0.05664,-0.002 -0.08008,0.0586 h -0.01172 -0.02539 -0.0039 l -0.0098,0.006 -0.0078,0.002 -0.0332,-0.0117 h -0.01367 -0.02344 -0.02344 l -0.02539,0.002 -0.02734,0.002 -0.07031,-0.0801 -0.03125,-0.002 -0.07031,-0.01 -0.05078,-0.008 -0.04297,-0.0137 -0.04492,-0.0488 -0.002,-0.0176 0.01758,-0.041 -0.06641,-0.008 -0.07227,-0.0117 h -0.0059 l -0.01953,-0.0977 0.0039,-0.004 -0.01172,-0.0234 0.02344,-0.0391 0.02148,-0.0117 h -0.02344 l -0.109375,-0.0117 -0.07617,-0.0156 -0.04492,-0.0254 -0.0332,-0.0293 -0.05859,-0.004 -0.04297,-0.004 -0.02148,-0.006 -0.03711,-0.0351 0.01953,-0.0606 0.01172,-0.008 0.0293,-0.01 0.04687,-0.008 0.03516,-0.008 0.05859,-0.008 0.0625,-0.004 -0.05859,-0.01 -0.05273,-0.006 -0.08984,-0.0176 0.0059,-0.13282 -0.06055,-0.0117 -0.05078,-0.0137 -0.01953,-0.0742 -0.05859,-0.01 -0.04492,-0.0117 -0.03906,-0.0117 -0.0039,-0.0996 -0.01367,-0.002 -0.08984,-0.0527 -0.28711,-0.0508 -0.08203,-0.0156 -0.236328,-0.11328 0.08594,-0.13086 -0.0098,-0.0117 0.02344,-0.30078 h 0.04102 l 0.21875,0.0215 -0.0078,-0.0508 0.0039,-0.0371 -0.142578,-0.0195 -0.01953,-0.004 h -0.0039 l -0.01953,-0.002 v -0.002 l -0.01367,-0.0898 -0.03711,-0.006 -0.02344,-0.006 v -0.002 l -0.0078,-0.14062 v -0.006 l -0.002,-0.008 -0.0039,-0.0527 -0.02734,-0.004 -0.06445,-0.0117 -0.07422,-0.0254 -0.01758,-0.14648 h -0.0078 l -0.0625,-0.006 -0.03906,-0.006 v -0.004 l -0.382813,-0.0488 -0.04687,-0.006 0.02344,-0.29883 0.0332,0.004 h 0.002 l 0.01953,0.002 0.224609,0.0273 -0.002,-0.0234 v -0.004 l -0.03516,-0.004 -0.380859,-0.0371 -0.07031,-0.0117 -0.04492,-0.006 v -0.006 l -0.01367,-0.14649 0.05273,-0.14648 v -0.002 l 0.0078,-0.008 0.03711,0.0117 0.07031,0.01 0.173828,0.0176 0.02734,-0.0508 -0.337891,-0.0234 z"
       sodipodi:nodetypes="ccccccccsssscsccccccccccccccccccccccccccccccccccccccccccccccccccccccccccccccccccccccccccccccccccccccccccccccccccccccccccccccccccccccccccccccccccccccccccccccccccccccccccccccccccccccccccccccccccccccccccccccccccccccccccccccccccccc" /><path
       style="display:inline;fill:#e5a50a;enable-background:new"
       d="m 12.969897,-5.1910842 30.339543,-0.00243 1.978008,2.8641691 V 3.5751086 L 10.99422,3.5749726 v -5.9043177 z"
       id="path13"
       inkscape:path-effect="#path-effect15"
       inkscape:original-d="m 12.969897,-5.1910842 30.339543,-0.00243 1.978008,2.8641691 V 3.5751086 L 10.99422,3.5749726 v -5.9043177 z"
       transform="matrix(1.7163739,0,0,1.6472501,15.699807,69.681014)"
       sodipodi:nodetypes="ccccccc" /><path
       id="path14"
       style="display:inline;fill:#f5c211;fill-opacity:1;stroke-width:0.232651;enable-background:new"
       d="m 63.999999,28.007424 c -1.37469,1.09e-4 -2.654114,0.62126 -3.392484,1.647027 l -1.697271,2.358616 -2.571624,3.57614 -18.375788,25.537106 -0.0018,0.0037 -3.390695,4.713604 h 6.32002 46.219263 6.320021 L 90.035,61.126 69.089787,32.013105 67.392516,29.654489 c -0.73837,-1.025767 -2.017795,-1.646918 -3.392485,-1.647027 z M 93.43,65.844 88.339896,72.917569 68.63715,100.3019 l -1.244666,1.73074 -3.392485,4.71541 h 6.320021 43.05926 3.16001 c 2.73593,-0.001 4.39342,-2.67303 2.92547,-4.71541 l -1.69521,-2.356798 v -0.0018 L 98.519407,72.917569 96.822136,70.560773 Z M 63.999999,106.74805 60.607515,102.03264 37.962832,70.560773 34.57,65.844 31.177862,70.560773 10.230451,99.674025 v 0.0018 l -1.6952139,2.356795 c -1.4678927,2.04238 0.1895772,4.71396 2.9254789,4.71541 h 3.16001 43.059253 z"
       sodipodi:nodetypes="ccccccccccccccccccccccccccccccccccccccccc" /></g></svg>
